# xmcd
#
# Track frame offsets: 
#        150
#        17730
#        31583
#        45633
#        63245
#        75630
#        90538
#        106038
#        128115
#        146680
#        160728
#        179225
#        191853
#
# Disc length: 2843 seconds
#
# Revision: 4
# Processed by: cddbd v1.5.2PL0 Copyright (c) Steve Scherf et al.
# Submitted via: ExactAudioCopy v1.0b3
#
DISCID=a50b190d
DTITLE=Steinar Albrigtsen - Alone too long
DYEAR=1990
DGENRE=Country
TTITLE0=Not Just Waitin'
TTITLE1=In Rosa's Heart
TTITLE2=Lessons of Love
TTITLE3=Till The Morning Comes
TTITLE4=Long Gone Cold Desire
TTITLE5=Home at The End of The Road
TTITLE6=Burning Moonlight
TTITLE7=Alone Too Long
TTITLE8=Born Country
TTITLE9=Richland Woman's Blues
TTITLE10=One Row at the Time
TTITLE11=Your Daddy's Caddilac
TTITLE12=Too Late for Tears
EXTD=
EXTT0=
EXTT1=
EXTT2=
EXTT3=
EXTT4=
EXTT5=
EXTT6=
EXTT7=
EXTT8=
EXTT9=
EXTT10=
EXTT11=
EXTT12=
PLAYORDER=
